<svg width="64px" height="64px" viewBox="0 0 20 20" version="1.1" xmlns="http://www.w3.org/2000/svg" fill="#000000"><g id="SVGRepo_bgCarrier" stroke-width="0"></g><g id="SVGRepo_iconCarrier"> <g id="layer1"> <path d="M 17.550781 1.0019531 L 17.345703 1.0078125 L 17.144531 1.0429688 L 16.949219 1.1054688 L 16.765625 1.1933594 L 16.59375 1.3046875 L 16.439453 1.4394531 L 12.548828 5.328125 L 12.326172 5.5351562 L 12.082031 5.7207031 L 11.826172 5.8847656 L 11.554688 6.0253906 L 11.273438 6.1425781 L 10.982422 6.234375 L 10.681641 6.3007812 L 10.380859 6.3417969 L 10.076172 6.3535156 L 9.7695312 6.3417969 L 9.46875 6.3007812 L 9.1699219 6.234375 L 8.8789062 6.1425781 L 8.5957031 6.0253906 L 8.3242188 5.8847656 L 8.0683594 5.7207031 L 7.8261719 5.5351562 L 7.6015625 5.328125 L 0.52929688 12.400391 L 7.6015625 19.470703 L 14.671875 12.400391 L 14.464844 12.173828 L 14.279297 11.931641 L 14.115234 11.675781 L 13.974609 11.404297 L 13.857422 11.121094 L 13.765625 10.830078 L 13.699219 10.533203 L 13.660156 10.230469 L 13.646484 9.9238281 L 13.660156 9.6191406 L 13.699219 9.3183594 L 13.765625 9.0175781 L 13.857422 8.7265625 L 13.974609 8.4453125 L 14.115234 8.1757812 L 14.279297 7.9179688 L 14.464844 7.6738281 L 14.671875 7.4511719 L 18.560547 3.5605469 L 18.695312 3.40625 L 18.806641 3.2363281 L 18.894531 3.0507812 L 18.957031 2.8554688 L 18.992188 2.6542969 L 18.998047 2.4492188 L 18.976562 2.2460938 L 18.929688 2.046875 L 18.853516 1.8574219 L 18.753906 1.6777344 L 18.628906 1.5136719 L 18.486328 1.3710938 L 18.322266 1.2460938 L 18.142578 1.1464844 L 17.953125 1.0703125 L 17.755859 1.0234375 L 17.550781 1.0019531 z M 17.443359 2.0039062 L 17.556641 2.0039062 L 17.664062 2.0292969 L 17.765625 2.0761719 L 17.853516 2.1464844 L 17.923828 2.234375 L 17.970703 2.3359375 L 17.996094 2.4433594 L 17.996094 2.5566406 L 17.970703 2.6660156 L 17.923828 2.7675781 L 17.853516 2.8554688 L 13.964844 6.7421875 L 13.722656 7.0039062 L 13.501953 7.2851562 L 13.304688 7.5820312 L 13.132812 7.8925781 L 12.984375 8.2167969 L 12.861328 8.5527344 L 12.765625 8.8945312 L 12.697266 9.2460938 L 12.658203 9.5996094 L 12.646484 9.9550781 L 12.662109 10.310547 L 12.707031 10.666016 L 12.78125 11.013672 L 12.880859 11.357422 L 13.007812 11.689453 L 13.160156 12.011719 L 13.335938 12.320312 L 12.904297 12.751953 L 7.2480469 7.0957031 L 7.6796875 6.6640625 L 7.9882812 6.8398438 L 8.3125 6.9941406 L 8.6445312 7.1191406 L 8.9863281 7.21875 L 9.3359375 7.2929688 L 9.6894531 7.3378906 L 10.044922 7.3535156 L 10.400391 7.3417969 L 10.753906 7.3027344 L 11.105469 7.234375 L 11.447266 7.1386719 L 11.783203 7.0175781 L 12.107422 6.8691406 L 12.417969 6.6953125 L 12.714844 6.4980469 L 12.996094 6.2773438 L 13.257812 6.0351562 L 17.146484 2.1464844 L 17.232422 2.0761719 L 17.333984 2.0292969 L 17.443359 2.0039062 z M 6.5410156 7.8027344 L 12.197266 13.458984 L 10.642578 15.015625 L 10.623047 14.759766 L 10.585938 14.505859 L 10.556641 14.380859 L 10.519531 14.257812 L 10.46875 14.140625 L 10.404297 14.029297 L 10.326172 13.925781 L 10.236328 13.837891 L 10.130859 13.761719 L 10.017578 13.703125 L 9.8964844 13.660156 L 9.7714844 13.634766 L 9.6425781 13.623047 L 9.515625 13.623047 L 9.3867188 13.634766 L 9.2597656 13.654297 L 9.0097656 13.710938 L 8.765625 13.785156 L 8.5234375 13.869141 L 8.046875 14.058594 L 7.6054688 14.228516 L 7.5976562 14.248047 L 7.5683594 14.242188 L 7.6054688 14.228516 L 8.1015625 12.9375 L 8.2128906 12.605469 L 8.3066406 12.265625 L 8.34375 12.09375 L 8.3691406 11.921875 L 8.3808594 11.748047 L 8.3710938 11.572266 L 8.3574219 11.484375 L 8.3359375 11.400391 L 8.3085938 11.316406 L 8.2695312 11.236328 L 8.2246094 11.162109 L 8.1679688 11.09375 L 8.1054688 11.03125 L 8.0371094 10.976562 L 7.9609375 10.931641 L 7.8808594 10.896484 L 7.796875 10.869141 L 7.7109375 10.853516 L 7.6230469 10.84375 L 7.5351562 10.841797 L 7.3613281 10.857422 L 7.1875 10.892578 L 7.0195312 10.9375 L 6.6835938 11.042969 L 6.3535156 11.158203 L 6.1855469 11.212891 L 6.0390625 11.25 L 6.0390625 11.263672 L 6.0136719 11.255859 L 6.0390625 11.25 L 6.0566406 10.951172 L 6.078125 10.640625 L 6.0800781 10.484375 L 6.0761719 10.328125 L 6.0585938 10.173828 L 6.0292969 10.019531 L 5.984375 9.8710938 L 5.9238281 9.7265625 L 5.8515625 9.5898438 L 5.765625 9.4589844 L 5.6660156 9.3378906 L 5.5566406 9.2265625 L 5.4375 9.125 L 5.3144531 9.03125 L 6.5410156 7.8027344 z M 4.5898438 9.7519531 L 4.7167969 9.8320312 L 4.8359375 9.9238281 L 4.9414062 10.029297 L 4.984375 10.089844 L 5.0195312 10.15625 L 5.0488281 10.224609 L 5.0644531 10.296875 L 5.0800781 10.445312 L 5.0703125 10.744141 L 5.0488281 11.041016 L 5.0371094 11.339844 L 5.0449219 11.488281 L 5.0664062 11.636719 L 5.109375 11.779297 L 5.1738281 11.914062 L 5.2148438 11.974609 L 5.2636719 12.033203 L 5.3164062 12.085938 L 5.375 12.132812 L 5.4394531 12.171875 L 5.5058594 12.207031 L 5.6484375 12.251953 L 5.7949219 12.273438 L 5.9433594 12.273438 L 6.09375 12.257812 L 6.2382812 12.230469 L 6.5273438 12.152344 L 6.8105469 12.056641 L 7.0917969 11.958984 L 7.3632812 11.880859 L 7.3671875 11.857422 L 7.3789062 11.876953 L 7.3632812 11.880859 L 7.328125 12.056641 L 7.2734375 12.253906 L 7.1445312 12.640625 L 6.8476562 13.404297 L 6.6992188 13.785156 L 6.6308594 13.978516 L 6.5703125 14.173828 L 6.5234375 14.373047 L 6.5078125 14.472656 L 6.5 14.576172 L 6.5 14.677734 L 6.5136719 14.779297 L 6.5410156 14.878906 L 6.5800781 14.972656 L 6.6328125 15.060547 L 6.6992188 15.138672 L 6.7773438 15.207031 L 6.8652344 15.257812 L 6.9589844 15.298828 L 7.0605469 15.324219 L 7.1601562 15.335938 L 7.2636719 15.337891 L 7.3652344 15.328125 L 7.4667969 15.310547 L 7.6640625 15.261719 L 7.859375 15.199219 L 8.0507812 15.130859 L 8.8105469 14.830078 L 9.1972656 14.695312 L 9.3964844 14.646484 L 9.4980469 14.628906 L 9.5839844 14.623047 L 9.5800781 14.607422 L 9.5996094 14.621094 L 9.5839844 14.623047 L 9.6035156 14.689453 L 9.6171875 14.771484 L 9.6347656 14.939453 L 9.6523438 15.275391 L 9.671875 15.611328 L 9.7109375 15.945312 L 7.6015625 18.056641 L 1.9453125 12.400391 L 4.5898438 9.7519531 z " style="fill-opacity:1; stroke:none; stroke-width:0px;"></path> </g> </g></svg>